<mxfile host="app.diagrams.net" modified="2023-12-19T22:39:41.221Z" agent="Mozilla/5.0 (Windows NT 10.0; Win64; x64) AppleWebKit/537.36 (KHTML, like Gecko) Chrome/119.0.0.0 Safari/537.36 OPR/105.0.0.0" etag="UWL8RXly1stUM4h84k4W" version="22.1.11" type="github" pages="3">
  <diagram name="Page-1" id="Kbnb0wgWCopXUh_-OWTw">
    <mxGraphModel dx="1009" dy="542" grid="1" gridSize="10" guides="1" tooltips="1" connect="1" arrows="1" fold="1" page="1" pageScale="1" pageWidth="850" pageHeight="1100" background="#000000" math="0" shadow="0">
      <root>
        <mxCell id="0" />
        <mxCell id="1" parent="0" />
        <mxCell id="h25F_q6QR63_d5PZG7VG-3" value="" style="edgeStyle=orthogonalEdgeStyle;rounded=0;orthogonalLoop=1;jettySize=auto;html=1;labelBackgroundColor=none;strokeColor=#FFFFFF;fontColor=default;" parent="1" source="h25F_q6QR63_d5PZG7VG-1" target="h25F_q6QR63_d5PZG7VG-2" edge="1">
          <mxGeometry relative="1" as="geometry" />
        </mxCell>
        <mxCell id="h25F_q6QR63_d5PZG7VG-1" value="Start" style="strokeWidth=2;html=1;shape=mxgraph.flowchart.terminator;whiteSpace=wrap;labelBackgroundColor=none;fillColor=#182E3E;strokeColor=#FFFFFF;fontColor=#FFFFFF;" parent="1" vertex="1">
          <mxGeometry x="93" y="80" width="70" height="40" as="geometry" />
        </mxCell>
        <mxCell id="h25F_q6QR63_d5PZG7VG-5" value="" style="edgeStyle=orthogonalEdgeStyle;rounded=0;orthogonalLoop=1;jettySize=auto;html=1;labelBackgroundColor=none;strokeColor=#FFFFFF;fontColor=default;" parent="1" source="h25F_q6QR63_d5PZG7VG-2" target="h25F_q6QR63_d5PZG7VG-4" edge="1">
          <mxGeometry relative="1" as="geometry" />
        </mxCell>
        <mxCell id="h25F_q6QR63_d5PZG7VG-2" value="get vehicleType" style="shape=parallelogram;perimeter=parallelogramPerimeter;whiteSpace=wrap;html=1;fixedSize=1;strokeWidth=2;labelBackgroundColor=none;fillColor=#182E3E;strokeColor=#FFFFFF;fontColor=#FFFFFF;" parent="1" vertex="1">
          <mxGeometry x="68" y="150" width="120" height="60" as="geometry" />
        </mxCell>
        <mxCell id="h25F_q6QR63_d5PZG7VG-7" value="" style="edgeStyle=orthogonalEdgeStyle;rounded=0;orthogonalLoop=1;jettySize=auto;html=1;labelBackgroundColor=none;strokeColor=#FFFFFF;fontColor=default;" parent="1" source="h25F_q6QR63_d5PZG7VG-4" target="h25F_q6QR63_d5PZG7VG-6" edge="1">
          <mxGeometry relative="1" as="geometry" />
        </mxCell>
        <mxCell id="h25F_q6QR63_d5PZG7VG-4" value="get hourEntered" style="shape=parallelogram;perimeter=parallelogramPerimeter;whiteSpace=wrap;html=1;fixedSize=1;strokeWidth=2;labelBackgroundColor=none;fillColor=#182E3E;strokeColor=#FFFFFF;fontColor=#FFFFFF;" parent="1" vertex="1">
          <mxGeometry x="68" y="250" width="120" height="60" as="geometry" />
        </mxCell>
        <mxCell id="h25F_q6QR63_d5PZG7VG-9" value="" style="edgeStyle=orthogonalEdgeStyle;rounded=0;orthogonalLoop=1;jettySize=auto;html=1;labelBackgroundColor=none;strokeColor=#FFFFFF;fontColor=default;" parent="1" source="h25F_q6QR63_d5PZG7VG-6" target="h25F_q6QR63_d5PZG7VG-8" edge="1">
          <mxGeometry relative="1" as="geometry" />
        </mxCell>
        <mxCell id="h25F_q6QR63_d5PZG7VG-6" value="get minuteEntered" style="shape=parallelogram;perimeter=parallelogramPerimeter;whiteSpace=wrap;html=1;fixedSize=1;strokeWidth=2;labelBackgroundColor=none;fillColor=#182E3E;strokeColor=#FFFFFF;fontColor=#FFFFFF;" parent="1" vertex="1">
          <mxGeometry x="68" y="350" width="120" height="60" as="geometry" />
        </mxCell>
        <mxCell id="h25F_q6QR63_d5PZG7VG-11" value="" style="edgeStyle=orthogonalEdgeStyle;rounded=0;orthogonalLoop=1;jettySize=auto;html=1;labelBackgroundColor=none;strokeColor=#FFFFFF;fontColor=default;" parent="1" source="h25F_q6QR63_d5PZG7VG-8" target="h25F_q6QR63_d5PZG7VG-10" edge="1">
          <mxGeometry relative="1" as="geometry" />
        </mxCell>
        <mxCell id="h25F_q6QR63_d5PZG7VG-8" value="get hourLeft" style="shape=parallelogram;perimeter=parallelogramPerimeter;whiteSpace=wrap;html=1;fixedSize=1;strokeWidth=2;labelBackgroundColor=none;fillColor=#182E3E;strokeColor=#FFFFFF;fontColor=#FFFFFF;" parent="1" vertex="1">
          <mxGeometry x="68" y="450" width="120" height="60" as="geometry" />
        </mxCell>
        <mxCell id="h25F_q6QR63_d5PZG7VG-13" value="" style="edgeStyle=orthogonalEdgeStyle;rounded=0;orthogonalLoop=1;jettySize=auto;html=1;labelBackgroundColor=none;strokeColor=#FFFFFF;fontColor=default;" parent="1" source="h25F_q6QR63_d5PZG7VG-10" target="h25F_q6QR63_d5PZG7VG-12" edge="1">
          <mxGeometry relative="1" as="geometry" />
        </mxCell>
        <mxCell id="h25F_q6QR63_d5PZG7VG-10" value="get minuteLeft" style="shape=parallelogram;perimeter=parallelogramPerimeter;whiteSpace=wrap;html=1;fixedSize=1;strokeWidth=2;labelBackgroundColor=none;fillColor=#182E3E;strokeColor=#FFFFFF;fontColor=#FFFFFF;" parent="1" vertex="1">
          <mxGeometry x="68" y="550" width="120" height="60" as="geometry" />
        </mxCell>
        <mxCell id="h25F_q6QR63_d5PZG7VG-15" value="" style="edgeStyle=orthogonalEdgeStyle;rounded=0;orthogonalLoop=1;jettySize=auto;html=1;labelBackgroundColor=none;strokeColor=#FFFFFF;fontColor=default;" parent="1" source="h25F_q6QR63_d5PZG7VG-12" target="h25F_q6QR63_d5PZG7VG-14" edge="1">
          <mxGeometry relative="1" as="geometry" />
        </mxCell>
        <mxCell id="h25F_q6QR63_d5PZG7VG-12" value="hourEntered &amp;gt; hourleft&amp;nbsp;" style="rhombus;whiteSpace=wrap;html=1;strokeWidth=2;labelBackgroundColor=none;fillColor=#182E3E;strokeColor=#FFFFFF;fontColor=#FFFFFF;" parent="1" vertex="1">
          <mxGeometry x="71.75" y="650" width="112.5" height="110" as="geometry" />
        </mxCell>
        <mxCell id="h25F_q6QR63_d5PZG7VG-33" value="" style="edgeStyle=orthogonalEdgeStyle;rounded=0;orthogonalLoop=1;jettySize=auto;html=1;labelBackgroundColor=none;strokeColor=#FFFFFF;fontColor=default;" parent="1" source="h25F_q6QR63_d5PZG7VG-14" target="h25F_q6QR63_d5PZG7VG-32" edge="1">
          <mxGeometry relative="1" as="geometry" />
        </mxCell>
        <mxCell id="h25F_q6QR63_d5PZG7VG-14" value="hourLeft = 24 and minuteLeft &amp;gt; 0" style="rhombus;whiteSpace=wrap;html=1;strokeWidth=2;labelBackgroundColor=none;fillColor=#182E3E;strokeColor=#FFFFFF;fontColor=#FFFFFF;" parent="1" vertex="1">
          <mxGeometry x="71.75" y="800" width="112.5" height="110" as="geometry" />
        </mxCell>
        <mxCell id="h25F_q6QR63_d5PZG7VG-24" value="" style="edgeStyle=orthogonalEdgeStyle;rounded=0;orthogonalLoop=1;jettySize=auto;html=1;labelBackgroundColor=none;strokeColor=#FFFFFF;fontColor=default;" parent="1" source="h25F_q6QR63_d5PZG7VG-16" target="h25F_q6QR63_d5PZG7VG-23" edge="1">
          <mxGeometry relative="1" as="geometry" />
        </mxCell>
        <mxCell id="h25F_q6QR63_d5PZG7VG-16" value="" style="verticalLabelPosition=bottom;verticalAlign=top;html=1;shape=mxgraph.flowchart.or;labelBackgroundColor=none;fillColor=#182E3E;strokeColor=#FFFFFF;fontColor=#FFFFFF;" parent="1" vertex="1">
          <mxGeometry x="238" y="770" width="20" height="20" as="geometry" />
        </mxCell>
        <mxCell id="h25F_q6QR63_d5PZG7VG-19" style="edgeStyle=orthogonalEdgeStyle;rounded=0;orthogonalLoop=1;jettySize=auto;html=1;entryX=0.5;entryY=0;entryDx=0;entryDy=0;entryPerimeter=0;labelBackgroundColor=none;strokeColor=#FFFFFF;fontColor=default;" parent="1" source="h25F_q6QR63_d5PZG7VG-12" target="h25F_q6QR63_d5PZG7VG-16" edge="1">
          <mxGeometry relative="1" as="geometry" />
        </mxCell>
        <mxCell id="h25F_q6QR63_d5PZG7VG-20" style="edgeStyle=orthogonalEdgeStyle;rounded=0;orthogonalLoop=1;jettySize=auto;html=1;entryX=0.5;entryY=1;entryDx=0;entryDy=0;entryPerimeter=0;labelBackgroundColor=none;strokeColor=#FFFFFF;fontColor=default;" parent="1" source="h25F_q6QR63_d5PZG7VG-14" target="h25F_q6QR63_d5PZG7VG-16" edge="1">
          <mxGeometry relative="1" as="geometry" />
        </mxCell>
        <mxCell id="h25F_q6QR63_d5PZG7VG-23" value="print&lt;br&gt;&quot;Vehicle will be &lt;br&gt;towed away&quot;" style="shape=parallelogram;perimeter=parallelogramPerimeter;whiteSpace=wrap;html=1;fixedSize=1;verticalAlign=top;labelBackgroundColor=none;fillColor=#182E3E;strokeColor=#FFFFFF;fontColor=#FFFFFF;" parent="1" vertex="1">
          <mxGeometry x="288" y="750" width="145" height="60" as="geometry" />
        </mxCell>
        <mxCell id="h25F_q6QR63_d5PZG7VG-32" value="calcHours" style="shape=process;whiteSpace=wrap;html=1;backgroundOutline=1;strokeWidth=2;labelBackgroundColor=none;fillColor=#182E3E;strokeColor=#FFFFFF;fontColor=#FFFFFF;" parent="1" vertex="1">
          <mxGeometry x="68" y="950" width="120" height="60" as="geometry" />
        </mxCell>
        <mxCell id="h25F_q6QR63_d5PZG7VG-34" value="" style="verticalLabelPosition=bottom;verticalAlign=top;html=1;shape=mxgraph.flowchart.on-page_reference;labelBackgroundColor=none;fillColor=#182E3E;strokeColor=#FFFFFF;fontColor=#FFFFFF;" parent="1" vertex="1">
          <mxGeometry x="278" y="950" width="60" height="60" as="geometry" />
        </mxCell>
        <mxCell id="h25F_q6QR63_d5PZG7VG-35" style="edgeStyle=orthogonalEdgeStyle;rounded=0;orthogonalLoop=1;jettySize=auto;html=1;entryX=0;entryY=0.5;entryDx=0;entryDy=0;entryPerimeter=0;labelBackgroundColor=none;strokeColor=#FFFFFF;fontColor=default;" parent="1" source="h25F_q6QR63_d5PZG7VG-32" target="h25F_q6QR63_d5PZG7VG-34" edge="1">
          <mxGeometry relative="1" as="geometry" />
        </mxCell>
        <mxCell id="h25F_q6QR63_d5PZG7VG-36" value="A" style="text;html=1;strokeColor=none;fillColor=none;align=center;verticalAlign=middle;whiteSpace=wrap;rounded=0;labelBackgroundColor=none;fontColor=#FFFFFF;" parent="1" vertex="1">
          <mxGeometry x="278" y="965" width="60" height="30" as="geometry" />
        </mxCell>
        <mxCell id="h25F_q6QR63_d5PZG7VG-41" value="" style="edgeStyle=orthogonalEdgeStyle;rounded=0;orthogonalLoop=1;jettySize=auto;html=1;labelBackgroundColor=none;strokeColor=#FFFFFF;fontColor=default;" parent="1" source="h25F_q6QR63_d5PZG7VG-38" target="h25F_q6QR63_d5PZG7VG-40" edge="1">
          <mxGeometry relative="1" as="geometry" />
        </mxCell>
        <mxCell id="h25F_q6QR63_d5PZG7VG-38" value="" style="verticalLabelPosition=bottom;verticalAlign=top;html=1;shape=mxgraph.flowchart.on-page_reference;labelBackgroundColor=none;fillColor=#182E3E;strokeColor=#FFFFFF;fontColor=#FFFFFF;" parent="1" vertex="1">
          <mxGeometry x="330.5" y="70" width="60" height="60" as="geometry" />
        </mxCell>
        <mxCell id="h25F_q6QR63_d5PZG7VG-39" value="A" style="text;html=1;strokeColor=none;fillColor=none;align=center;verticalAlign=middle;whiteSpace=wrap;rounded=0;labelBackgroundColor=none;fontColor=#FFFFFF;" parent="1" vertex="1">
          <mxGeometry x="330.5" y="85" width="60" height="30" as="geometry" />
        </mxCell>
        <mxCell id="h25F_q6QR63_d5PZG7VG-43" value="" style="edgeStyle=orthogonalEdgeStyle;rounded=0;orthogonalLoop=1;jettySize=auto;html=1;labelBackgroundColor=none;strokeColor=#FFFFFF;fontColor=default;" parent="1" source="h25F_q6QR63_d5PZG7VG-40" target="h25F_q6QR63_d5PZG7VG-42" edge="1">
          <mxGeometry relative="1" as="geometry" />
        </mxCell>
        <mxCell id="h25F_q6QR63_d5PZG7VG-40" value="&lt;br&gt;returnRounded" style="shape=process;whiteSpace=wrap;html=1;backgroundOutline=1;verticalAlign=top;labelBackgroundColor=none;fillColor=#182E3E;strokeColor=#FFFFFF;fontColor=#FFFFFF;" parent="1" vertex="1">
          <mxGeometry x="300.5" y="160" width="120" height="60" as="geometry" />
        </mxCell>
        <mxCell id="h25F_q6QR63_d5PZG7VG-45" value="" style="edgeStyle=orthogonalEdgeStyle;rounded=0;orthogonalLoop=1;jettySize=auto;html=1;labelBackgroundColor=none;strokeColor=#FFFFFF;fontColor=default;" parent="1" source="h25F_q6QR63_d5PZG7VG-42" target="h25F_q6QR63_d5PZG7VG-44" edge="1">
          <mxGeometry relative="1" as="geometry" />
        </mxCell>
        <mxCell id="h25F_q6QR63_d5PZG7VG-42" value="&lt;br&gt;calcCharges" style="shape=process;whiteSpace=wrap;html=1;backgroundOutline=1;verticalAlign=top;labelBackgroundColor=none;fillColor=#182E3E;strokeColor=#FFFFFF;fontColor=#FFFFFF;" parent="1" vertex="1">
          <mxGeometry x="300.5" y="260" width="120" height="60" as="geometry" />
        </mxCell>
        <mxCell id="h25F_q6QR63_d5PZG7VG-48" value="" style="edgeStyle=orthogonalEdgeStyle;rounded=0;orthogonalLoop=1;jettySize=auto;html=1;labelBackgroundColor=none;strokeColor=#FFFFFF;fontColor=default;" parent="1" source="h25F_q6QR63_d5PZG7VG-44" target="h25F_q6QR63_d5PZG7VG-47" edge="1">
          <mxGeometry relative="1" as="geometry" />
        </mxCell>
        <mxCell id="h25F_q6QR63_d5PZG7VG-44" value="&lt;br&gt;printCharges" style="shape=process;whiteSpace=wrap;html=1;backgroundOutline=1;verticalAlign=top;labelBackgroundColor=none;fillColor=#182E3E;strokeColor=#FFFFFF;fontColor=#FFFFFF;" parent="1" vertex="1">
          <mxGeometry x="300.5" y="370" width="120" height="60" as="geometry" />
        </mxCell>
        <mxCell id="h25F_q6QR63_d5PZG7VG-47" value="Stop" style="strokeWidth=2;html=1;shape=mxgraph.flowchart.terminator;whiteSpace=wrap;labelBackgroundColor=none;fillColor=#182E3E;strokeColor=#FFFFFF;fontColor=#FFFFFF;" parent="1" vertex="1">
          <mxGeometry x="325.5" y="470" width="70" height="40" as="geometry" />
        </mxCell>
        <mxCell id="f5xuUbgv4AwsCVu3Sem2-3" value="True" style="text;html=1;strokeColor=none;fillColor=none;align=center;verticalAlign=middle;whiteSpace=wrap;rounded=0;labelBackgroundColor=none;fontColor=#FFFFFF;" parent="1" vertex="1">
          <mxGeometry x="184.25" y="680" width="60" height="30" as="geometry" />
        </mxCell>
        <mxCell id="f5xuUbgv4AwsCVu3Sem2-4" value="False" style="text;html=1;strokeColor=none;fillColor=none;align=center;verticalAlign=middle;whiteSpace=wrap;rounded=0;labelBackgroundColor=none;fontColor=#FFFFFF;" parent="1" vertex="1">
          <mxGeometry x="123" y="760" width="60" height="30" as="geometry" />
        </mxCell>
        <mxCell id="f5xuUbgv4AwsCVu3Sem2-5" value="True" style="text;html=1;strokeColor=none;fillColor=none;align=center;verticalAlign=middle;whiteSpace=wrap;rounded=0;labelBackgroundColor=none;fontColor=#FFFFFF;" parent="1" vertex="1">
          <mxGeometry x="184.25" y="830" width="60" height="30" as="geometry" />
        </mxCell>
        <mxCell id="f5xuUbgv4AwsCVu3Sem2-7" value="False" style="text;html=1;strokeColor=none;fillColor=none;align=center;verticalAlign=middle;whiteSpace=wrap;rounded=0;labelBackgroundColor=none;fontColor=#FFFFFF;" parent="1" vertex="1">
          <mxGeometry x="124.25" y="910" width="60" height="30" as="geometry" />
        </mxCell>
        <mxCell id="Xd2T2PAbcZvX1LgGi4U3-1" style="edgeStyle=orthogonalEdgeStyle;rounded=0;orthogonalLoop=1;jettySize=auto;html=1;entryX=0.5;entryY=1;entryDx=0;entryDy=0;entryPerimeter=0;labelBackgroundColor=none;strokeColor=#FFFFFF;fontColor=default;" parent="1" source="h25F_q6QR63_d5PZG7VG-23" target="h25F_q6QR63_d5PZG7VG-47" edge="1">
          <mxGeometry relative="1" as="geometry" />
        </mxCell>
        <mxCell id="VwBZy-y6N7gpf4ot-aL7-1" value="" style="edgeStyle=orthogonalEdgeStyle;rounded=0;orthogonalLoop=1;jettySize=auto;html=1;labelBackgroundColor=none;strokeColor=#FFFFFF;fontColor=default;" parent="1" source="VwBZy-y6N7gpf4ot-aL7-2" target="VwBZy-y6N7gpf4ot-aL7-5" edge="1">
          <mxGeometry relative="1" as="geometry" />
        </mxCell>
        <mxCell id="VwBZy-y6N7gpf4ot-aL7-2" value="calcHours" style="strokeWidth=2;html=1;shape=mxgraph.flowchart.terminator;whiteSpace=wrap;labelBackgroundColor=none;fillColor=#182E3E;strokeColor=#FFFFFF;fontColor=#FFFFFF;" parent="1" vertex="1">
          <mxGeometry x="518" y="80" width="70" height="40" as="geometry" />
        </mxCell>
        <mxCell id="VwBZy-y6N7gpf4ot-aL7-3" value="" style="edgeStyle=orthogonalEdgeStyle;rounded=0;orthogonalLoop=1;jettySize=auto;html=1;labelBackgroundColor=none;strokeColor=#FFFFFF;fontColor=default;" parent="1" source="VwBZy-y6N7gpf4ot-aL7-5" target="VwBZy-y6N7gpf4ot-aL7-7" edge="1">
          <mxGeometry relative="1" as="geometry" />
        </mxCell>
        <mxCell id="VwBZy-y6N7gpf4ot-aL7-4" value="" style="edgeStyle=orthogonalEdgeStyle;rounded=0;orthogonalLoop=1;jettySize=auto;html=1;labelBackgroundColor=none;strokeColor=#FFFFFF;fontColor=default;" parent="1" source="VwBZy-y6N7gpf4ot-aL7-5" target="VwBZy-y6N7gpf4ot-aL7-11" edge="1">
          <mxGeometry relative="1" as="geometry" />
        </mxCell>
        <mxCell id="VwBZy-y6N7gpf4ot-aL7-5" value="minuteLeft &amp;lt;&amp;nbsp;&lt;br&gt;minuteEntered" style="rhombus;whiteSpace=wrap;html=1;strokeWidth=2;labelBackgroundColor=none;fillColor=#182E3E;strokeColor=#FFFFFF;fontColor=#FFFFFF;" parent="1" vertex="1">
          <mxGeometry x="493" y="170" width="120" height="120" as="geometry" />
        </mxCell>
        <mxCell id="VwBZy-y6N7gpf4ot-aL7-6" value="" style="edgeStyle=orthogonalEdgeStyle;rounded=0;orthogonalLoop=1;jettySize=auto;html=1;labelBackgroundColor=none;strokeColor=#FFFFFF;fontColor=default;" parent="1" source="VwBZy-y6N7gpf4ot-aL7-7" target="VwBZy-y6N7gpf4ot-aL7-9" edge="1">
          <mxGeometry relative="1" as="geometry" />
        </mxCell>
        <mxCell id="VwBZy-y6N7gpf4ot-aL7-7" value="minuteLeft = minuteLeft + 60" style="whiteSpace=wrap;html=1;strokeWidth=2;labelBackgroundColor=none;fillColor=#182E3E;strokeColor=#FFFFFF;fontColor=#FFFFFF;" parent="1" vertex="1">
          <mxGeometry x="663" y="200" width="120" height="60" as="geometry" />
        </mxCell>
        <mxCell id="VwBZy-y6N7gpf4ot-aL7-8" style="edgeStyle=orthogonalEdgeStyle;rounded=0;orthogonalLoop=1;jettySize=auto;html=1;labelBackgroundColor=none;strokeColor=#FFFFFF;fontColor=default;" parent="1" source="VwBZy-y6N7gpf4ot-aL7-9" target="VwBZy-y6N7gpf4ot-aL7-11" edge="1">
          <mxGeometry relative="1" as="geometry" />
        </mxCell>
        <mxCell id="VwBZy-y6N7gpf4ot-aL7-9" value="hourLeft = &lt;br&gt;hourLeft - 1" style="whiteSpace=wrap;html=1;strokeWidth=2;labelBackgroundColor=none;fillColor=#182E3E;strokeColor=#FFFFFF;fontColor=#FFFFFF;" parent="1" vertex="1">
          <mxGeometry x="663" y="330" width="120" height="60" as="geometry" />
        </mxCell>
        <mxCell id="VwBZy-y6N7gpf4ot-aL7-10" value="" style="edgeStyle=orthogonalEdgeStyle;rounded=0;orthogonalLoop=1;jettySize=auto;html=1;labelBackgroundColor=none;strokeColor=#FFFFFF;fontColor=default;" parent="1" source="VwBZy-y6N7gpf4ot-aL7-11" target="VwBZy-y6N7gpf4ot-aL7-13" edge="1">
          <mxGeometry relative="1" as="geometry" />
        </mxCell>
        <mxCell id="VwBZy-y6N7gpf4ot-aL7-11" value="hourParked = hourLeft - hourEntered" style="whiteSpace=wrap;html=1;strokeWidth=2;labelBackgroundColor=none;fillColor=#182E3E;strokeColor=#FFFFFF;fontColor=#FFFFFF;" parent="1" vertex="1">
          <mxGeometry x="478" y="330" width="150" height="60" as="geometry" />
        </mxCell>
        <mxCell id="VwBZy-y6N7gpf4ot-aL7-12" value="" style="edgeStyle=orthogonalEdgeStyle;rounded=0;orthogonalLoop=1;jettySize=auto;html=1;labelBackgroundColor=none;strokeColor=#FFFFFF;fontColor=default;" parent="1" source="VwBZy-y6N7gpf4ot-aL7-13" target="VwBZy-y6N7gpf4ot-aL7-14" edge="1">
          <mxGeometry relative="1" as="geometry" />
        </mxCell>
        <mxCell id="VwBZy-y6N7gpf4ot-aL7-13" value="minuteParked = minuteLeft - minuteEntered" style="whiteSpace=wrap;html=1;strokeWidth=2;labelBackgroundColor=none;fillColor=#182E3E;strokeColor=#FFFFFF;fontColor=#FFFFFF;" parent="1" vertex="1">
          <mxGeometry x="478" y="440" width="150" height="60" as="geometry" />
        </mxCell>
        <mxCell id="VwBZy-y6N7gpf4ot-aL7-14" value="return" style="strokeWidth=2;html=1;shape=mxgraph.flowchart.terminator;whiteSpace=wrap;labelBackgroundColor=none;fillColor=#182E3E;strokeColor=#FFFFFF;fontColor=#FFFFFF;" parent="1" vertex="1">
          <mxGeometry x="518" y="540" width="70" height="40" as="geometry" />
        </mxCell>
        <mxCell id="VwBZy-y6N7gpf4ot-aL7-15" value="True" style="text;html=1;strokeColor=none;fillColor=none;align=center;verticalAlign=middle;whiteSpace=wrap;rounded=0;labelBackgroundColor=none;fontColor=#FFFFFF;" parent="1" vertex="1">
          <mxGeometry x="603" y="200" width="60" height="30" as="geometry" />
        </mxCell>
        <mxCell id="VwBZy-y6N7gpf4ot-aL7-16" value="False" style="text;html=1;strokeColor=none;fillColor=none;align=center;verticalAlign=middle;whiteSpace=wrap;rounded=0;labelBackgroundColor=none;fontColor=#FFFFFF;" parent="1" vertex="1">
          <mxGeometry x="553" y="290" width="60" height="30" as="geometry" />
        </mxCell>
        <mxCell id="VwBZy-y6N7gpf4ot-aL7-17" value="" style="edgeStyle=orthogonalEdgeStyle;rounded=0;orthogonalLoop=1;jettySize=auto;html=1;labelBackgroundColor=none;strokeColor=#FFFFFF;fontColor=default;" parent="1" source="VwBZy-y6N7gpf4ot-aL7-18" target="VwBZy-y6N7gpf4ot-aL7-21" edge="1">
          <mxGeometry relative="1" as="geometry" />
        </mxCell>
        <mxCell id="VwBZy-y6N7gpf4ot-aL7-18" value="returnRounded" style="strokeWidth=2;html=1;shape=mxgraph.flowchart.terminator;whiteSpace=wrap;labelBackgroundColor=none;fillColor=#182E3E;strokeColor=#FFFFFF;fontColor=#FFFFFF;" parent="1" vertex="1">
          <mxGeometry x="508.5" y="630" width="87" height="40" as="geometry" />
        </mxCell>
        <mxCell id="VwBZy-y6N7gpf4ot-aL7-19" value="" style="edgeStyle=orthogonalEdgeStyle;rounded=0;orthogonalLoop=1;jettySize=auto;html=1;labelBackgroundColor=none;strokeColor=#FFFFFF;fontColor=default;" parent="1" source="VwBZy-y6N7gpf4ot-aL7-21" target="VwBZy-y6N7gpf4ot-aL7-23" edge="1">
          <mxGeometry relative="1" as="geometry" />
        </mxCell>
        <mxCell id="VwBZy-y6N7gpf4ot-aL7-20" value="" style="edgeStyle=orthogonalEdgeStyle;rounded=0;orthogonalLoop=1;jettySize=auto;html=1;labelBackgroundColor=none;strokeColor=#FFFFFF;fontColor=default;" parent="1" source="VwBZy-y6N7gpf4ot-aL7-21" edge="1">
          <mxGeometry relative="1" as="geometry">
            <mxPoint x="552" y="900" as="targetPoint" />
          </mxGeometry>
        </mxCell>
        <mxCell id="VwBZy-y6N7gpf4ot-aL7-21" value="minuteParked &amp;gt; 0" style="rhombus;whiteSpace=wrap;html=1;strokeWidth=2;labelBackgroundColor=none;fillColor=#182E3E;strokeColor=#FFFFFF;fontColor=#FFFFFF;" parent="1" vertex="1">
          <mxGeometry x="492" y="740" width="120" height="120" as="geometry" />
        </mxCell>
        <mxCell id="VwBZy-y6N7gpf4ot-aL7-22" style="edgeStyle=orthogonalEdgeStyle;rounded=0;orthogonalLoop=1;jettySize=auto;html=1;entryX=1;entryY=0.5;entryDx=0;entryDy=0;entryPerimeter=0;labelBackgroundColor=none;strokeColor=#FFFFFF;fontColor=default;" parent="1" source="VwBZy-y6N7gpf4ot-aL7-23" target="VwBZy-y6N7gpf4ot-aL7-24" edge="1">
          <mxGeometry relative="1" as="geometry">
            <mxPoint x="612" y="930" as="targetPoint" />
            <Array as="points">
              <mxPoint x="709" y="930" />
            </Array>
          </mxGeometry>
        </mxCell>
        <mxCell id="VwBZy-y6N7gpf4ot-aL7-23" value="hourParked = hourParked + 1" style="whiteSpace=wrap;html=1;strokeWidth=2;labelBackgroundColor=none;fillColor=#182E3E;strokeColor=#FFFFFF;fontColor=#FFFFFF;" parent="1" vertex="1">
          <mxGeometry x="649" y="770" width="120" height="60" as="geometry" />
        </mxCell>
        <mxCell id="VwBZy-y6N7gpf4ot-aL7-24" value="return &lt;br&gt;hourParked" style="strokeWidth=2;html=1;shape=mxgraph.flowchart.terminator;whiteSpace=wrap;labelBackgroundColor=none;fillColor=#182E3E;strokeColor=#FFFFFF;fontColor=#FFFFFF;" parent="1" vertex="1">
          <mxGeometry x="502" y="900" width="100" height="60" as="geometry" />
        </mxCell>
        <mxCell id="VwBZy-y6N7gpf4ot-aL7-25" value="True" style="text;html=1;strokeColor=none;fillColor=none;align=center;verticalAlign=middle;whiteSpace=wrap;rounded=0;labelBackgroundColor=none;fontColor=#FFFFFF;" parent="1" vertex="1">
          <mxGeometry x="595.5" y="770" width="60" height="30" as="geometry" />
        </mxCell>
        <mxCell id="VwBZy-y6N7gpf4ot-aL7-26" value="False" style="text;html=1;strokeColor=none;fillColor=none;align=center;verticalAlign=middle;whiteSpace=wrap;rounded=0;labelBackgroundColor=none;fontColor=#FFFFFF;" parent="1" vertex="1">
          <mxGeometry x="552" y="860" width="60" height="30" as="geometry" />
        </mxCell>
      </root>
    </mxGraphModel>
  </diagram>
  <diagram id="JkNxpaqzsaH_bKmUlaDJ" name="Page-3">
    <mxGraphModel dx="1009" dy="542" grid="1" gridSize="10" guides="1" tooltips="1" connect="1" arrows="1" fold="1" page="1" pageScale="1" pageWidth="850" pageHeight="1100" background="#000000" math="0" shadow="0">
      <root>
        <mxCell id="0" />
        <mxCell id="1" parent="0" />
        <mxCell id="yGTu5x-xuSUlHNo--P09-6" value="" style="edgeStyle=orthogonalEdgeStyle;rounded=0;orthogonalLoop=1;jettySize=auto;html=1;labelBackgroundColor=none;strokeColor=#FFFFFF;fontColor=default;" parent="1" source="yGTu5x-xuSUlHNo--P09-1" target="yGTu5x-xuSUlHNo--P09-5" edge="1">
          <mxGeometry relative="1" as="geometry" />
        </mxCell>
        <mxCell id="yGTu5x-xuSUlHNo--P09-1" value="calcCharges" style="strokeWidth=2;html=1;shape=mxgraph.flowchart.terminator;whiteSpace=wrap;labelBackgroundColor=none;fillColor=#182E3E;strokeColor=#FFFFFF;fontColor=#FFFFFF;" parent="1" vertex="1">
          <mxGeometry x="155" y="120" width="70" height="40" as="geometry" />
        </mxCell>
        <mxCell id="yGTu5x-xuSUlHNo--P09-8" value="" style="edgeStyle=orthogonalEdgeStyle;rounded=0;orthogonalLoop=1;jettySize=auto;html=1;labelBackgroundColor=none;strokeColor=#FFFFFF;fontColor=default;" parent="1" source="yGTu5x-xuSUlHNo--P09-5" target="yGTu5x-xuSUlHNo--P09-7" edge="1">
          <mxGeometry relative="1" as="geometry" />
        </mxCell>
        <mxCell id="yGTu5x-xuSUlHNo--P09-5" value="switch (vehicleType)" style="whiteSpace=wrap;html=1;strokeWidth=2;labelBackgroundColor=none;fillColor=#182E3E;strokeColor=#FFFFFF;fontColor=#FFFFFF;" parent="1" vertex="1">
          <mxGeometry x="130" y="200" width="120" height="60" as="geometry" />
        </mxCell>
        <mxCell id="yGTu5x-xuSUlHNo--P09-9" style="edgeStyle=orthogonalEdgeStyle;rounded=0;orthogonalLoop=1;jettySize=auto;html=1;entryX=0;entryY=0.5;entryDx=0;entryDy=0;entryPerimeter=0;labelBackgroundColor=none;strokeColor=#FFFFFF;fontColor=default;" parent="1" source="yGTu5x-xuSUlHNo--P09-7" target="yGTu5x-xuSUlHNo--P09-10" edge="1">
          <mxGeometry relative="1" as="geometry">
            <mxPoint x="305" y="345" as="targetPoint" />
          </mxGeometry>
        </mxCell>
        <mxCell id="yGTu5x-xuSUlHNo--P09-12" value="" style="edgeStyle=orthogonalEdgeStyle;rounded=0;orthogonalLoop=1;jettySize=auto;html=1;labelBackgroundColor=none;strokeColor=#FFFFFF;fontColor=default;" parent="1" source="yGTu5x-xuSUlHNo--P09-7" target="yGTu5x-xuSUlHNo--P09-11" edge="1">
          <mxGeometry relative="1" as="geometry" />
        </mxCell>
        <mxCell id="yGTu5x-xuSUlHNo--P09-7" value="case &#39;C&#39;" style="rhombus;whiteSpace=wrap;html=1;strokeWidth=2;labelBackgroundColor=none;fillColor=#182E3E;strokeColor=#FFFFFF;fontColor=#FFFFFF;" parent="1" vertex="1">
          <mxGeometry x="138" y="290" width="105" height="110" as="geometry" />
        </mxCell>
        <mxCell id="yN-OTdnPXMjlrZ2X3yF_-3" value="" style="edgeStyle=orthogonalEdgeStyle;rounded=0;orthogonalLoop=1;jettySize=auto;html=1;labelBackgroundColor=none;strokeColor=#FFFFFF;fontColor=default;" parent="1" source="yGTu5x-xuSUlHNo--P09-10" target="yN-OTdnPXMjlrZ2X3yF_-2" edge="1">
          <mxGeometry relative="1" as="geometry" />
        </mxCell>
        <mxCell id="yN-OTdnPXMjlrZ2X3yF_-6" style="edgeStyle=orthogonalEdgeStyle;rounded=0;orthogonalLoop=1;jettySize=auto;html=1;entryX=0;entryY=0.5;entryDx=0;entryDy=0;labelBackgroundColor=none;strokeColor=#FFFFFF;fontColor=default;" parent="1" source="yGTu5x-xuSUlHNo--P09-10" target="yN-OTdnPXMjlrZ2X3yF_-5" edge="1">
          <mxGeometry relative="1" as="geometry">
            <Array as="points">
              <mxPoint x="360" y="450" />
            </Array>
          </mxGeometry>
        </mxCell>
        <mxCell id="yGTu5x-xuSUlHNo--P09-10" value="roundedHours &amp;gt; 3" style="strokeWidth=2;html=1;shape=mxgraph.flowchart.decision;whiteSpace=wrap;labelBackgroundColor=none;fillColor=#182E3E;strokeColor=#FFFFFF;fontColor=#FFFFFF;" parent="1" vertex="1">
          <mxGeometry x="305" y="287.5" width="110" height="115" as="geometry" />
        </mxCell>
        <mxCell id="yGTu5x-xuSUlHNo--P09-16" style="edgeStyle=orthogonalEdgeStyle;rounded=0;orthogonalLoop=1;jettySize=auto;html=1;labelBackgroundColor=none;strokeColor=#FFFFFF;fontColor=default;" parent="1" source="yGTu5x-xuSUlHNo--P09-11" target="yGTu5x-xuSUlHNo--P09-14" edge="1">
          <mxGeometry relative="1" as="geometry" />
        </mxCell>
        <mxCell id="X8_9K_BKNBLwMzrlolJt-4" value="" style="edgeStyle=orthogonalEdgeStyle;rounded=0;orthogonalLoop=1;jettySize=auto;html=1;labelBackgroundColor=none;strokeColor=#FFFFFF;fontColor=default;" parent="1" source="yGTu5x-xuSUlHNo--P09-11" target="X8_9K_BKNBLwMzrlolJt-3" edge="1">
          <mxGeometry relative="1" as="geometry" />
        </mxCell>
        <mxCell id="yGTu5x-xuSUlHNo--P09-11" value="case &#39;T&#39;" style="rhombus;whiteSpace=wrap;html=1;strokeWidth=2;labelBackgroundColor=none;fillColor=#182E3E;strokeColor=#FFFFFF;fontColor=#FFFFFF;" parent="1" vertex="1">
          <mxGeometry x="138" y="495.5" width="105" height="110" as="geometry" />
        </mxCell>
        <mxCell id="yN-OTdnPXMjlrZ2X3yF_-8" value="" style="edgeStyle=orthogonalEdgeStyle;rounded=0;orthogonalLoop=1;jettySize=auto;html=1;labelBackgroundColor=none;strokeColor=#FFFFFF;fontColor=default;" parent="1" source="yGTu5x-xuSUlHNo--P09-14" target="yN-OTdnPXMjlrZ2X3yF_-7" edge="1">
          <mxGeometry relative="1" as="geometry" />
        </mxCell>
        <mxCell id="X8_9K_BKNBLwMzrlolJt-2" style="edgeStyle=orthogonalEdgeStyle;rounded=0;orthogonalLoop=1;jettySize=auto;html=1;entryX=0;entryY=0.5;entryDx=0;entryDy=0;labelBackgroundColor=none;strokeColor=#FFFFFF;fontColor=default;" parent="1" source="yGTu5x-xuSUlHNo--P09-14" target="X8_9K_BKNBLwMzrlolJt-1" edge="1">
          <mxGeometry relative="1" as="geometry">
            <Array as="points">
              <mxPoint x="360" y="650" />
            </Array>
          </mxGeometry>
        </mxCell>
        <mxCell id="yGTu5x-xuSUlHNo--P09-14" value="roundedHours &amp;gt; 2" style="strokeWidth=2;html=1;shape=mxgraph.flowchart.decision;whiteSpace=wrap;labelBackgroundColor=none;fillColor=#182E3E;strokeColor=#FFFFFF;fontColor=#FFFFFF;" parent="1" vertex="1">
          <mxGeometry x="305" y="493" width="110" height="115" as="geometry" />
        </mxCell>
        <mxCell id="yN-OTdnPXMjlrZ2X3yF_-2" value="parkingTotal = 1.50 * (roundedHours - 3)" style="whiteSpace=wrap;html=1;strokeWidth=2;labelBackgroundColor=none;fillColor=#182E3E;strokeColor=#FFFFFF;fontColor=#FFFFFF;" parent="1" vertex="1">
          <mxGeometry x="500" y="315" width="160" height="60" as="geometry" />
        </mxCell>
        <mxCell id="yN-OTdnPXMjlrZ2X3yF_-5" value="parkingTotal = 0.00" style="rounded=0;whiteSpace=wrap;html=1;labelBackgroundColor=none;fillColor=#182E3E;strokeColor=#FFFFFF;fontColor=#FFFFFF;" parent="1" vertex="1">
          <mxGeometry x="500" y="420" width="160" height="60" as="geometry" />
        </mxCell>
        <mxCell id="yN-OTdnPXMjlrZ2X3yF_-7" value="parkingTotal = 2.30 * (roundedHours) + 2.00" style="whiteSpace=wrap;html=1;strokeWidth=2;labelBackgroundColor=none;fillColor=#182E3E;strokeColor=#FFFFFF;fontColor=#FFFFFF;" parent="1" vertex="1">
          <mxGeometry x="500" y="520.5" width="160" height="60" as="geometry" />
        </mxCell>
        <mxCell id="X8_9K_BKNBLwMzrlolJt-1" value="parkingTotal = 1.00 * roundedHours" style="rounded=0;whiteSpace=wrap;html=1;labelBackgroundColor=none;fillColor=#182E3E;strokeColor=#FFFFFF;fontColor=#FFFFFF;" parent="1" vertex="1">
          <mxGeometry x="500" y="620" width="160" height="60" as="geometry" />
        </mxCell>
        <mxCell id="X8_9K_BKNBLwMzrlolJt-7" value="" style="edgeStyle=orthogonalEdgeStyle;rounded=0;orthogonalLoop=1;jettySize=auto;html=1;labelBackgroundColor=none;strokeColor=#FFFFFF;fontColor=default;" parent="1" source="X8_9K_BKNBLwMzrlolJt-3" target="X8_9K_BKNBLwMzrlolJt-6" edge="1">
          <mxGeometry relative="1" as="geometry" />
        </mxCell>
        <mxCell id="X8_9K_BKNBLwMzrlolJt-3" value="case &#39;B&#39;" style="rhombus;whiteSpace=wrap;html=1;strokeWidth=2;labelBackgroundColor=none;fillColor=#182E3E;strokeColor=#FFFFFF;fontColor=#FFFFFF;" parent="1" vertex="1">
          <mxGeometry x="138" y="700" width="105" height="110" as="geometry" />
        </mxCell>
        <mxCell id="X8_9K_BKNBLwMzrlolJt-9" value="" style="edgeStyle=orthogonalEdgeStyle;rounded=0;orthogonalLoop=1;jettySize=auto;html=1;labelBackgroundColor=none;strokeColor=#FFFFFF;fontColor=default;" parent="1" source="X8_9K_BKNBLwMzrlolJt-6" target="X8_9K_BKNBLwMzrlolJt-8" edge="1">
          <mxGeometry relative="1" as="geometry" />
        </mxCell>
        <mxCell id="X8_9K_BKNBLwMzrlolJt-11" style="edgeStyle=orthogonalEdgeStyle;rounded=0;orthogonalLoop=1;jettySize=auto;html=1;entryX=0;entryY=0.5;entryDx=0;entryDy=0;labelBackgroundColor=none;strokeColor=#FFFFFF;fontColor=default;" parent="1" source="X8_9K_BKNBLwMzrlolJt-6" target="X8_9K_BKNBLwMzrlolJt-10" edge="1">
          <mxGeometry relative="1" as="geometry">
            <Array as="points">
              <mxPoint x="358" y="860" />
            </Array>
          </mxGeometry>
        </mxCell>
        <mxCell id="X8_9K_BKNBLwMzrlolJt-6" value="roundedHours &amp;gt; 1" style="rhombus;whiteSpace=wrap;html=1;strokeWidth=2;labelBackgroundColor=none;fillColor=#182E3E;strokeColor=#FFFFFF;fontColor=#FFFFFF;" parent="1" vertex="1">
          <mxGeometry x="310" y="700" width="105" height="110" as="geometry" />
        </mxCell>
        <mxCell id="X8_9K_BKNBLwMzrlolJt-8" value="parkingTotal = 3.70 * (roundedHours - 2) + 2.00" style="whiteSpace=wrap;html=1;strokeWidth=2;labelBackgroundColor=none;fillColor=#182E3E;strokeColor=#FFFFFF;fontColor=#FFFFFF;" parent="1" vertex="1">
          <mxGeometry x="500" y="725" width="160" height="60" as="geometry" />
        </mxCell>
        <mxCell id="X8_9K_BKNBLwMzrlolJt-10" value="parkingTotal = 2.00 * roundedHours" style="rounded=0;whiteSpace=wrap;html=1;labelBackgroundColor=none;fillColor=#182E3E;strokeColor=#FFFFFF;fontColor=#FFFFFF;" parent="1" vertex="1">
          <mxGeometry x="500" y="830" width="160" height="60" as="geometry" />
        </mxCell>
        <mxCell id="QVFrntd3niLGpFPKS4Kl-1" value="return parkingTotal" style="strokeWidth=2;html=1;shape=mxgraph.flowchart.terminator;whiteSpace=wrap;labelBackgroundColor=none;fillColor=#182E3E;strokeColor=#FFFFFF;fontColor=#FFFFFF;" parent="1" vertex="1">
          <mxGeometry x="687.5" y="970" width="105" height="40" as="geometry" />
        </mxCell>
        <mxCell id="QVFrntd3niLGpFPKS4Kl-2" value="" style="verticalLabelPosition=bottom;verticalAlign=top;html=1;shape=mxgraph.flowchart.or;labelBackgroundColor=none;fillColor=#182E3E;strokeColor=#FFFFFF;fontColor=#FFFFFF;" parent="1" vertex="1">
          <mxGeometry x="730" y="440" width="20" height="20" as="geometry" />
        </mxCell>
        <mxCell id="QVFrntd3niLGpFPKS4Kl-4" style="edgeStyle=orthogonalEdgeStyle;rounded=0;orthogonalLoop=1;jettySize=auto;html=1;entryX=0.5;entryY=0;entryDx=0;entryDy=0;entryPerimeter=0;labelBackgroundColor=none;strokeColor=#FFFFFF;fontColor=default;" parent="1" source="yN-OTdnPXMjlrZ2X3yF_-2" target="QVFrntd3niLGpFPKS4Kl-2" edge="1">
          <mxGeometry relative="1" as="geometry" />
        </mxCell>
        <mxCell id="QVFrntd3niLGpFPKS4Kl-5" style="edgeStyle=orthogonalEdgeStyle;rounded=0;orthogonalLoop=1;jettySize=auto;html=1;entryX=0;entryY=0.5;entryDx=0;entryDy=0;entryPerimeter=0;labelBackgroundColor=none;strokeColor=#FFFFFF;fontColor=default;" parent="1" source="yN-OTdnPXMjlrZ2X3yF_-5" target="QVFrntd3niLGpFPKS4Kl-2" edge="1">
          <mxGeometry relative="1" as="geometry" />
        </mxCell>
        <mxCell id="QVFrntd3niLGpFPKS4Kl-6" value="" style="verticalLabelPosition=bottom;verticalAlign=top;html=1;shape=mxgraph.flowchart.or;labelBackgroundColor=none;fillColor=#182E3E;strokeColor=#FFFFFF;fontColor=#FFFFFF;" parent="1" vertex="1">
          <mxGeometry x="730" y="540.5" width="20" height="20" as="geometry" />
        </mxCell>
        <mxCell id="QVFrntd3niLGpFPKS4Kl-7" style="edgeStyle=orthogonalEdgeStyle;rounded=0;orthogonalLoop=1;jettySize=auto;html=1;entryX=0.5;entryY=0;entryDx=0;entryDy=0;entryPerimeter=0;labelBackgroundColor=none;strokeColor=#FFFFFF;fontColor=default;" parent="1" source="QVFrntd3niLGpFPKS4Kl-2" target="QVFrntd3niLGpFPKS4Kl-6" edge="1">
          <mxGeometry relative="1" as="geometry" />
        </mxCell>
        <mxCell id="QVFrntd3niLGpFPKS4Kl-8" style="edgeStyle=orthogonalEdgeStyle;rounded=0;orthogonalLoop=1;jettySize=auto;html=1;entryX=0;entryY=0.5;entryDx=0;entryDy=0;entryPerimeter=0;labelBackgroundColor=none;strokeColor=#FFFFFF;fontColor=default;" parent="1" source="yN-OTdnPXMjlrZ2X3yF_-7" target="QVFrntd3niLGpFPKS4Kl-6" edge="1">
          <mxGeometry relative="1" as="geometry" />
        </mxCell>
        <mxCell id="QVFrntd3niLGpFPKS4Kl-9" value="" style="verticalLabelPosition=bottom;verticalAlign=top;html=1;shape=mxgraph.flowchart.or;labelBackgroundColor=none;fillColor=#182E3E;strokeColor=#FFFFFF;fontColor=#FFFFFF;" parent="1" vertex="1">
          <mxGeometry x="730" y="640" width="20" height="20" as="geometry" />
        </mxCell>
        <mxCell id="QVFrntd3niLGpFPKS4Kl-10" style="edgeStyle=orthogonalEdgeStyle;rounded=0;orthogonalLoop=1;jettySize=auto;html=1;entryX=0;entryY=0.5;entryDx=0;entryDy=0;entryPerimeter=0;labelBackgroundColor=none;strokeColor=#FFFFFF;fontColor=default;" parent="1" source="X8_9K_BKNBLwMzrlolJt-1" target="QVFrntd3niLGpFPKS4Kl-9" edge="1">
          <mxGeometry relative="1" as="geometry" />
        </mxCell>
        <mxCell id="QVFrntd3niLGpFPKS4Kl-11" style="edgeStyle=orthogonalEdgeStyle;rounded=0;orthogonalLoop=1;jettySize=auto;html=1;entryX=0.5;entryY=0;entryDx=0;entryDy=0;entryPerimeter=0;labelBackgroundColor=none;strokeColor=#FFFFFF;fontColor=default;" parent="1" source="QVFrntd3niLGpFPKS4Kl-6" target="QVFrntd3niLGpFPKS4Kl-9" edge="1">
          <mxGeometry relative="1" as="geometry" />
        </mxCell>
        <mxCell id="QVFrntd3niLGpFPKS4Kl-12" value="" style="verticalLabelPosition=bottom;verticalAlign=top;html=1;shape=mxgraph.flowchart.or;labelBackgroundColor=none;fillColor=#182E3E;strokeColor=#FFFFFF;fontColor=#FFFFFF;" parent="1" vertex="1">
          <mxGeometry x="730" y="745" width="20" height="20" as="geometry" />
        </mxCell>
        <mxCell id="QVFrntd3niLGpFPKS4Kl-13" style="edgeStyle=orthogonalEdgeStyle;rounded=0;orthogonalLoop=1;jettySize=auto;html=1;entryX=0;entryY=0.5;entryDx=0;entryDy=0;entryPerimeter=0;labelBackgroundColor=none;strokeColor=#FFFFFF;fontColor=default;" parent="1" source="X8_9K_BKNBLwMzrlolJt-8" target="QVFrntd3niLGpFPKS4Kl-12" edge="1">
          <mxGeometry relative="1" as="geometry" />
        </mxCell>
        <mxCell id="QVFrntd3niLGpFPKS4Kl-14" style="edgeStyle=orthogonalEdgeStyle;rounded=0;orthogonalLoop=1;jettySize=auto;html=1;entryX=0.5;entryY=0;entryDx=0;entryDy=0;entryPerimeter=0;labelBackgroundColor=none;strokeColor=#FFFFFF;fontColor=default;" parent="1" source="QVFrntd3niLGpFPKS4Kl-9" target="QVFrntd3niLGpFPKS4Kl-12" edge="1">
          <mxGeometry relative="1" as="geometry" />
        </mxCell>
        <mxCell id="QVFrntd3niLGpFPKS4Kl-15" value="" style="verticalLabelPosition=bottom;verticalAlign=top;html=1;shape=mxgraph.flowchart.or;labelBackgroundColor=none;fillColor=#182E3E;strokeColor=#FFFFFF;fontColor=#FFFFFF;" parent="1" vertex="1">
          <mxGeometry x="730" y="850" width="20" height="20" as="geometry" />
        </mxCell>
        <mxCell id="QVFrntd3niLGpFPKS4Kl-17" style="edgeStyle=orthogonalEdgeStyle;rounded=0;orthogonalLoop=1;jettySize=auto;html=1;entryX=0.5;entryY=0;entryDx=0;entryDy=0;entryPerimeter=0;labelBackgroundColor=none;strokeColor=#FFFFFF;fontColor=default;" parent="1" source="QVFrntd3niLGpFPKS4Kl-12" target="QVFrntd3niLGpFPKS4Kl-15" edge="1">
          <mxGeometry relative="1" as="geometry" />
        </mxCell>
        <mxCell id="QVFrntd3niLGpFPKS4Kl-18" style="edgeStyle=orthogonalEdgeStyle;rounded=0;orthogonalLoop=1;jettySize=auto;html=1;entryX=0;entryY=0.5;entryDx=0;entryDy=0;entryPerimeter=0;labelBackgroundColor=none;strokeColor=#FFFFFF;fontColor=default;" parent="1" source="X8_9K_BKNBLwMzrlolJt-10" target="QVFrntd3niLGpFPKS4Kl-15" edge="1">
          <mxGeometry relative="1" as="geometry" />
        </mxCell>
        <mxCell id="QVFrntd3niLGpFPKS4Kl-19" style="edgeStyle=orthogonalEdgeStyle;rounded=0;orthogonalLoop=1;jettySize=auto;html=1;entryX=0.5;entryY=0;entryDx=0;entryDy=0;entryPerimeter=0;labelBackgroundColor=none;strokeColor=#FFFFFF;fontColor=default;" parent="1" source="QVFrntd3niLGpFPKS4Kl-15" target="QVFrntd3niLGpFPKS4Kl-1" edge="1">
          <mxGeometry relative="1" as="geometry" />
        </mxCell>
        <mxCell id="QVFrntd3niLGpFPKS4Kl-20" value="True" style="text;html=1;strokeColor=none;fillColor=none;align=center;verticalAlign=middle;whiteSpace=wrap;rounded=0;labelBackgroundColor=none;fontColor=#FFFFFF;" parent="1" vertex="1">
          <mxGeometry x="243" y="315" width="60" height="30" as="geometry" />
        </mxCell>
        <mxCell id="QVFrntd3niLGpFPKS4Kl-21" value="True" style="text;html=1;strokeColor=none;fillColor=none;align=center;verticalAlign=middle;whiteSpace=wrap;rounded=0;labelBackgroundColor=none;fontColor=#FFFFFF;" parent="1" vertex="1">
          <mxGeometry x="415" y="315" width="60" height="30" as="geometry" />
        </mxCell>
        <mxCell id="QVFrntd3niLGpFPKS4Kl-22" value="True" style="text;html=1;strokeColor=none;fillColor=none;align=center;verticalAlign=middle;whiteSpace=wrap;rounded=0;labelBackgroundColor=none;fontColor=#FFFFFF;" parent="1" vertex="1">
          <mxGeometry x="243" y="520.5" width="60" height="30" as="geometry" />
        </mxCell>
        <mxCell id="QVFrntd3niLGpFPKS4Kl-23" value="True" style="text;html=1;strokeColor=none;fillColor=none;align=center;verticalAlign=middle;whiteSpace=wrap;rounded=0;labelBackgroundColor=none;fontColor=#FFFFFF;" parent="1" vertex="1">
          <mxGeometry x="415" y="520.5" width="60" height="30" as="geometry" />
        </mxCell>
        <mxCell id="QVFrntd3niLGpFPKS4Kl-24" value="True" style="text;html=1;strokeColor=none;fillColor=none;align=center;verticalAlign=middle;whiteSpace=wrap;rounded=0;labelBackgroundColor=none;fontColor=#FFFFFF;" parent="1" vertex="1">
          <mxGeometry x="243" y="725" width="60" height="30" as="geometry" />
        </mxCell>
        <mxCell id="QVFrntd3niLGpFPKS4Kl-25" value="True" style="text;html=1;strokeColor=none;fillColor=none;align=center;verticalAlign=middle;whiteSpace=wrap;rounded=0;labelBackgroundColor=none;fontColor=#FFFFFF;" parent="1" vertex="1">
          <mxGeometry x="415" y="725" width="60" height="30" as="geometry" />
        </mxCell>
        <mxCell id="QVFrntd3niLGpFPKS4Kl-26" value="False" style="text;html=1;strokeColor=none;fillColor=none;align=center;verticalAlign=middle;whiteSpace=wrap;rounded=0;labelBackgroundColor=none;fontColor=#FFFFFF;" parent="1" vertex="1">
          <mxGeometry x="190" y="635" width="60" height="30" as="geometry" />
        </mxCell>
        <mxCell id="QVFrntd3niLGpFPKS4Kl-27" value="False" style="text;html=1;strokeColor=none;fillColor=none;align=center;verticalAlign=middle;whiteSpace=wrap;rounded=0;labelBackgroundColor=none;fontColor=#FFFFFF;" parent="1" vertex="1">
          <mxGeometry x="190" y="435" width="60" height="30" as="geometry" />
        </mxCell>
        <mxCell id="QVFrntd3niLGpFPKS4Kl-28" value="False" style="text;html=1;strokeColor=none;fillColor=none;align=center;verticalAlign=middle;whiteSpace=wrap;rounded=0;labelBackgroundColor=none;fontColor=#FFFFFF;" parent="1" vertex="1">
          <mxGeometry x="415" y="420" width="60" height="30" as="geometry" />
        </mxCell>
        <mxCell id="QVFrntd3niLGpFPKS4Kl-29" value="False" style="text;html=1;strokeColor=none;fillColor=none;align=center;verticalAlign=middle;whiteSpace=wrap;rounded=0;labelBackgroundColor=none;fontColor=#FFFFFF;" parent="1" vertex="1">
          <mxGeometry x="415" y="620" width="60" height="30" as="geometry" />
        </mxCell>
        <mxCell id="QVFrntd3niLGpFPKS4Kl-30" value="False" style="text;html=1;strokeColor=none;fillColor=none;align=center;verticalAlign=middle;whiteSpace=wrap;rounded=0;labelBackgroundColor=none;fontColor=#FFFFFF;" parent="1" vertex="1">
          <mxGeometry x="415" y="830" width="60" height="30" as="geometry" />
        </mxCell>
      </root>
    </mxGraphModel>
  </diagram>
  <diagram id="zS-5z7RcrsWtwEuUg_cU" name="Page-4">
    <mxGraphModel dx="1009" dy="542" grid="1" gridSize="10" guides="1" tooltips="1" connect="1" arrows="1" fold="1" page="1" pageScale="1" pageWidth="850" pageHeight="1100" math="0" shadow="0">
      <root>
        <mxCell id="0" />
        <mxCell id="1" parent="0" />
        <mxCell id="mTytLppbClMXJ6Y0CA01-3" value="" style="edgeStyle=orthogonalEdgeStyle;rounded=0;orthogonalLoop=1;jettySize=auto;html=1;labelBackgroundColor=none;strokeColor=#23445D;fontColor=default;" parent="1" source="mTytLppbClMXJ6Y0CA01-1" target="mTytLppbClMXJ6Y0CA01-2" edge="1">
          <mxGeometry relative="1" as="geometry" />
        </mxCell>
        <mxCell id="mTytLppbClMXJ6Y0CA01-1" value="printCharges" style="strokeWidth=2;html=1;shape=mxgraph.flowchart.terminator;whiteSpace=wrap;labelBackgroundColor=none;fillColor=#182E3E;strokeColor=#FFFFFF;fontColor=#FFFFFF;" parent="1" vertex="1">
          <mxGeometry x="61.75" y="90" width="90" height="40" as="geometry" />
        </mxCell>
        <mxCell id="mTytLppbClMXJ6Y0CA01-5" value="" style="edgeStyle=orthogonalEdgeStyle;rounded=0;orthogonalLoop=1;jettySize=auto;html=1;labelBackgroundColor=none;strokeColor=#23445D;fontColor=default;" parent="1" source="mTytLppbClMXJ6Y0CA01-2" target="mTytLppbClMXJ6Y0CA01-4" edge="1">
          <mxGeometry relative="1" as="geometry" />
        </mxCell>
        <mxCell id="mTytLppbClMXJ6Y0CA01-2" value="vehicleType = &#39;C&#39;" style="rhombus;whiteSpace=wrap;html=1;strokeWidth=2;labelBackgroundColor=none;fillColor=#182E3E;strokeColor=#FFFFFF;fontColor=#FFFFFF;" parent="1" vertex="1">
          <mxGeometry x="44.75" y="190" width="125" height="80" as="geometry" />
        </mxCell>
        <mxCell id="mTytLppbClMXJ6Y0CA01-7" value="" style="edgeStyle=orthogonalEdgeStyle;rounded=0;orthogonalLoop=1;jettySize=auto;html=1;labelBackgroundColor=none;strokeColor=#23445D;fontColor=default;" parent="1" source="mTytLppbClMXJ6Y0CA01-4" target="mTytLppbClMXJ6Y0CA01-6" edge="1">
          <mxGeometry relative="1" as="geometry" />
        </mxCell>
        <mxCell id="mTytLppbClMXJ6Y0CA01-4" value="vehicleType = &#39;T&#39;" style="rhombus;whiteSpace=wrap;html=1;strokeWidth=2;labelBackgroundColor=none;fillColor=#182E3E;strokeColor=#FFFFFF;fontColor=#FFFFFF;" parent="1" vertex="1">
          <mxGeometry x="44.75" y="320" width="125" height="80" as="geometry" />
        </mxCell>
        <mxCell id="mTytLppbClMXJ6Y0CA01-9" value="" style="edgeStyle=orthogonalEdgeStyle;rounded=0;orthogonalLoop=1;jettySize=auto;html=1;labelBackgroundColor=none;strokeColor=#23445D;fontColor=default;" parent="1" source="mTytLppbClMXJ6Y0CA01-6" target="mTytLppbClMXJ6Y0CA01-8" edge="1">
          <mxGeometry relative="1" as="geometry" />
        </mxCell>
        <mxCell id="mTytLppbClMXJ6Y0CA01-6" value="vehicleType = &#39;B&#39;" style="rhombus;whiteSpace=wrap;html=1;strokeWidth=2;labelBackgroundColor=none;fillColor=#182E3E;strokeColor=#FFFFFF;fontColor=#FFFFFF;" parent="1" vertex="1">
          <mxGeometry x="44.25" y="450" width="125" height="80" as="geometry" />
        </mxCell>
        <mxCell id="mTytLppbClMXJ6Y0CA01-8" value="Invalid vehicle type" style="shape=parallelogram;perimeter=parallelogramPerimeter;whiteSpace=wrap;html=1;fixedSize=1;strokeWidth=2;labelBackgroundColor=none;fillColor=#182E3E;strokeColor=#FFFFFF;fontColor=#FFFFFF;" parent="1" vertex="1">
          <mxGeometry x="38" y="590" width="137.5" height="60" as="geometry" />
        </mxCell>
        <mxCell id="mTytLppbClMXJ6Y0CA01-10" value="return" style="strokeWidth=2;html=1;shape=mxgraph.flowchart.terminator;whiteSpace=wrap;labelBackgroundColor=none;fillColor=#182E3E;strokeColor=#FFFFFF;fontColor=#FFFFFF;" parent="1" vertex="1">
          <mxGeometry x="62.25" y="700" width="90" height="40" as="geometry" />
        </mxCell>
        <mxCell id="mTytLppbClMXJ6Y0CA01-11" style="edgeStyle=orthogonalEdgeStyle;rounded=0;orthogonalLoop=1;jettySize=auto;html=1;entryX=0.5;entryY=0;entryDx=0;entryDy=0;entryPerimeter=0;labelBackgroundColor=none;strokeColor=#23445D;fontColor=default;" parent="1" source="mTytLppbClMXJ6Y0CA01-8" target="mTytLppbClMXJ6Y0CA01-10" edge="1">
          <mxGeometry relative="1" as="geometry" />
        </mxCell>
        <mxCell id="xnqerNVusVYPaNGDVCc0-6" style="edgeStyle=orthogonalEdgeStyle;rounded=0;orthogonalLoop=1;jettySize=auto;html=1;labelBackgroundColor=none;strokeColor=#23445D;fontColor=default;entryX=0;entryY=0.5;entryDx=0;entryDy=0;" parent="1" source="xnqerNVusVYPaNGDVCc0-1" target="xnqerNVusVYPaNGDVCc0-21" edge="1">
          <mxGeometry relative="1" as="geometry">
            <Array as="points">
              <mxPoint x="235" y="120" />
            </Array>
            <mxPoint x="284.75" y="110" as="targetPoint" />
          </mxGeometry>
        </mxCell>
        <mxCell id="xnqerNVusVYPaNGDVCc0-1" value="" style="verticalLabelPosition=bottom;verticalAlign=top;html=1;shape=mxgraph.flowchart.or;labelBackgroundColor=none;fillColor=#182E3E;strokeColor=#FFFFFF;fontColor=#FFFFFF;" parent="1" vertex="1">
          <mxGeometry x="224.75" y="220" width="20" height="20" as="geometry" />
        </mxCell>
        <mxCell id="xnqerNVusVYPaNGDVCc0-9" style="edgeStyle=orthogonalEdgeStyle;rounded=0;orthogonalLoop=1;jettySize=auto;html=1;entryX=0;entryY=0.5;entryDx=0;entryDy=0;entryPerimeter=0;labelBackgroundColor=none;strokeColor=#23445D;fontColor=default;" parent="1" source="mTytLppbClMXJ6Y0CA01-2" target="xnqerNVusVYPaNGDVCc0-1" edge="1">
          <mxGeometry relative="1" as="geometry" />
        </mxCell>
        <mxCell id="xnqerNVusVYPaNGDVCc0-11" value="" style="verticalLabelPosition=bottom;verticalAlign=top;html=1;shape=mxgraph.flowchart.or;labelBackgroundColor=none;fillColor=#182E3E;strokeColor=#FFFFFF;fontColor=#FFFFFF;" parent="1" vertex="1">
          <mxGeometry x="224.75" y="350" width="20" height="20" as="geometry" />
        </mxCell>
        <mxCell id="xnqerNVusVYPaNGDVCc0-14" style="edgeStyle=orthogonalEdgeStyle;rounded=0;orthogonalLoop=1;jettySize=auto;html=1;entryX=0;entryY=0.5;entryDx=0;entryDy=0;entryPerimeter=0;labelBackgroundColor=none;strokeColor=#23445D;fontColor=default;" parent="1" source="mTytLppbClMXJ6Y0CA01-4" target="xnqerNVusVYPaNGDVCc0-11" edge="1">
          <mxGeometry relative="1" as="geometry" />
        </mxCell>
        <mxCell id="xnqerNVusVYPaNGDVCc0-15" style="edgeStyle=orthogonalEdgeStyle;rounded=0;orthogonalLoop=1;jettySize=auto;html=1;entryX=0.5;entryY=1;entryDx=0;entryDy=0;entryPerimeter=0;labelBackgroundColor=none;strokeColor=#23445D;fontColor=default;" parent="1" source="xnqerNVusVYPaNGDVCc0-11" target="xnqerNVusVYPaNGDVCc0-1" edge="1">
          <mxGeometry relative="1" as="geometry" />
        </mxCell>
        <mxCell id="xnqerNVusVYPaNGDVCc0-16" style="edgeStyle=orthogonalEdgeStyle;rounded=0;orthogonalLoop=1;jettySize=auto;html=1;entryX=0.5;entryY=1;entryDx=0;entryDy=0;entryPerimeter=0;labelBackgroundColor=none;strokeColor=#23445D;fontColor=default;" parent="1" source="mTytLppbClMXJ6Y0CA01-6" target="xnqerNVusVYPaNGDVCc0-11" edge="1">
          <mxGeometry relative="1" as="geometry" />
        </mxCell>
        <mxCell id="xnqerNVusVYPaNGDVCc0-20" value="" style="edgeStyle=orthogonalEdgeStyle;rounded=0;orthogonalLoop=1;jettySize=auto;html=1;labelBackgroundColor=none;strokeColor=#23445D;fontColor=default;" parent="1" source="xnqerNVusVYPaNGDVCc0-17" target="xnqerNVusVYPaNGDVCc0-19" edge="1">
          <mxGeometry relative="1" as="geometry" />
        </mxCell>
        <mxCell id="xnqerNVusVYPaNGDVCc0-17" value="print hourEntered" style="shape=parallelogram;perimeter=parallelogramPerimeter;whiteSpace=wrap;html=1;fixedSize=1;labelBackgroundColor=none;fillColor=#182E3E;strokeColor=#FFFFFF;fontColor=#FFFFFF;" parent="1" vertex="1">
          <mxGeometry x="280" y="180" width="130" height="60" as="geometry" />
        </mxCell>
        <mxCell id="xnqerNVusVYPaNGDVCc0-25" value="" style="edgeStyle=orthogonalEdgeStyle;rounded=0;orthogonalLoop=1;jettySize=auto;html=1;labelBackgroundColor=none;strokeColor=#23445D;fontColor=default;" parent="1" source="xnqerNVusVYPaNGDVCc0-19" target="xnqerNVusVYPaNGDVCc0-24" edge="1">
          <mxGeometry relative="1" as="geometry" />
        </mxCell>
        <mxCell id="xnqerNVusVYPaNGDVCc0-19" value="print minuteEntered" style="shape=parallelogram;perimeter=parallelogramPerimeter;whiteSpace=wrap;html=1;fixedSize=1;labelBackgroundColor=none;fillColor=#182E3E;strokeColor=#FFFFFF;fontColor=#FFFFFF;" parent="1" vertex="1">
          <mxGeometry x="280" y="270" width="130" height="60" as="geometry" />
        </mxCell>
        <mxCell id="xnqerNVusVYPaNGDVCc0-23" style="edgeStyle=orthogonalEdgeStyle;rounded=0;orthogonalLoop=1;jettySize=auto;html=1;labelBackgroundColor=none;strokeColor=#23445D;fontColor=default;" parent="1" source="xnqerNVusVYPaNGDVCc0-21" target="xnqerNVusVYPaNGDVCc0-17" edge="1">
          <mxGeometry relative="1" as="geometry" />
        </mxCell>
        <mxCell id="xnqerNVusVYPaNGDVCc0-21" value="vehicleIdentifier" style="shape=process;whiteSpace=wrap;html=1;backgroundOutline=1;labelBackgroundColor=none;fillColor=#182E3E;strokeColor=#FFFFFF;fontColor=#FFFFFF;" parent="1" vertex="1">
          <mxGeometry x="285" y="90" width="120" height="60" as="geometry" />
        </mxCell>
        <mxCell id="xnqerNVusVYPaNGDVCc0-27" value="" style="edgeStyle=orthogonalEdgeStyle;rounded=0;orthogonalLoop=1;jettySize=auto;html=1;labelBackgroundColor=none;strokeColor=#23445D;fontColor=default;" parent="1" source="xnqerNVusVYPaNGDVCc0-24" target="xnqerNVusVYPaNGDVCc0-26" edge="1">
          <mxGeometry relative="1" as="geometry" />
        </mxCell>
        <mxCell id="xnqerNVusVYPaNGDVCc0-24" value="print hourLeft" style="shape=parallelogram;perimeter=parallelogramPerimeter;whiteSpace=wrap;html=1;fixedSize=1;labelBackgroundColor=none;fillColor=#182E3E;strokeColor=#FFFFFF;fontColor=#FFFFFF;" parent="1" vertex="1">
          <mxGeometry x="280" y="360" width="130" height="60" as="geometry" />
        </mxCell>
        <mxCell id="xnqerNVusVYPaNGDVCc0-29" value="" style="edgeStyle=orthogonalEdgeStyle;rounded=0;orthogonalLoop=1;jettySize=auto;html=1;labelBackgroundColor=none;strokeColor=#23445D;fontColor=default;" parent="1" source="xnqerNVusVYPaNGDVCc0-26" target="xnqerNVusVYPaNGDVCc0-28" edge="1">
          <mxGeometry relative="1" as="geometry" />
        </mxCell>
        <mxCell id="xnqerNVusVYPaNGDVCc0-26" value="print minuteLeft" style="shape=parallelogram;perimeter=parallelogramPerimeter;whiteSpace=wrap;html=1;fixedSize=1;labelBackgroundColor=none;fillColor=#182E3E;strokeColor=#FFFFFF;fontColor=#FFFFFF;" parent="1" vertex="1">
          <mxGeometry x="280" y="450" width="130" height="60" as="geometry" />
        </mxCell>
        <mxCell id="xnqerNVusVYPaNGDVCc0-31" value="" style="edgeStyle=orthogonalEdgeStyle;rounded=0;orthogonalLoop=1;jettySize=auto;html=1;labelBackgroundColor=none;strokeColor=#23445D;fontColor=default;" parent="1" source="xnqerNVusVYPaNGDVCc0-28" target="xnqerNVusVYPaNGDVCc0-30" edge="1">
          <mxGeometry relative="1" as="geometry" />
        </mxCell>
        <mxCell id="xnqerNVusVYPaNGDVCc0-28" value="print hourParked" style="shape=parallelogram;perimeter=parallelogramPerimeter;whiteSpace=wrap;html=1;fixedSize=1;labelBackgroundColor=none;fillColor=#182E3E;strokeColor=#FFFFFF;fontColor=#FFFFFF;" parent="1" vertex="1">
          <mxGeometry x="280" y="540" width="130" height="60" as="geometry" />
        </mxCell>
        <mxCell id="xnqerNVusVYPaNGDVCc0-33" value="" style="edgeStyle=orthogonalEdgeStyle;rounded=0;orthogonalLoop=1;jettySize=auto;html=1;labelBackgroundColor=none;strokeColor=#23445D;fontColor=default;" parent="1" source="xnqerNVusVYPaNGDVCc0-30" target="xnqerNVusVYPaNGDVCc0-32" edge="1">
          <mxGeometry relative="1" as="geometry" />
        </mxCell>
        <mxCell id="xnqerNVusVYPaNGDVCc0-30" value="print minuteParked" style="shape=parallelogram;perimeter=parallelogramPerimeter;whiteSpace=wrap;html=1;fixedSize=1;labelBackgroundColor=none;fillColor=#182E3E;strokeColor=#FFFFFF;fontColor=#FFFFFF;" parent="1" vertex="1">
          <mxGeometry x="280" y="640" width="130" height="60" as="geometry" />
        </mxCell>
        <mxCell id="xnqerNVusVYPaNGDVCc0-35" value="" style="edgeStyle=orthogonalEdgeStyle;rounded=0;orthogonalLoop=1;jettySize=auto;html=1;labelBackgroundColor=none;strokeColor=#23445D;fontColor=default;" parent="1" source="xnqerNVusVYPaNGDVCc0-32" target="xnqerNVusVYPaNGDVCc0-34" edge="1">
          <mxGeometry relative="1" as="geometry" />
        </mxCell>
        <mxCell id="xnqerNVusVYPaNGDVCc0-32" value="print roundedHours" style="shape=parallelogram;perimeter=parallelogramPerimeter;whiteSpace=wrap;html=1;fixedSize=1;labelBackgroundColor=none;fillColor=#182E3E;strokeColor=#FFFFFF;fontColor=#FFFFFF;" parent="1" vertex="1">
          <mxGeometry x="280" y="740" width="130" height="60" as="geometry" />
        </mxCell>
        <mxCell id="xnqerNVusVYPaNGDVCc0-34" value="print totalCharges" style="shape=parallelogram;perimeter=parallelogramPerimeter;whiteSpace=wrap;html=1;fixedSize=1;labelBackgroundColor=none;fillColor=#182E3E;strokeColor=#FFFFFF;fontColor=#FFFFFF;" parent="1" vertex="1">
          <mxGeometry x="280" y="840" width="130" height="60" as="geometry" />
        </mxCell>
        <mxCell id="xnqerNVusVYPaNGDVCc0-38" style="edgeStyle=orthogonalEdgeStyle;rounded=0;orthogonalLoop=1;jettySize=auto;html=1;entryX=0.5;entryY=1;entryDx=0;entryDy=0;entryPerimeter=0;labelBackgroundColor=none;strokeColor=#23445D;fontColor=default;" parent="1" source="xnqerNVusVYPaNGDVCc0-34" target="mTytLppbClMXJ6Y0CA01-10" edge="1">
          <mxGeometry relative="1" as="geometry" />
        </mxCell>
        <mxCell id="xnqerNVusVYPaNGDVCc0-43" style="edgeStyle=orthogonalEdgeStyle;rounded=0;orthogonalLoop=1;jettySize=auto;html=1;entryX=0.5;entryY=0;entryDx=0;entryDy=0;labelBackgroundColor=none;strokeColor=#23445D;fontColor=default;" parent="1" source="xnqerNVusVYPaNGDVCc0-39" target="xnqerNVusVYPaNGDVCc0-42" edge="1">
          <mxGeometry relative="1" as="geometry" />
        </mxCell>
        <mxCell id="xnqerNVusVYPaNGDVCc0-39" value="vehicleIdentifier" style="strokeWidth=2;html=1;shape=mxgraph.flowchart.terminator;whiteSpace=wrap;labelBackgroundColor=none;fillColor=#182E3E;strokeColor=#FFFFFF;fontColor=#FFFFFF;" parent="1" vertex="1">
          <mxGeometry x="487.5" y="90" width="90" height="40" as="geometry" />
        </mxCell>
        <mxCell id="xnqerNVusVYPaNGDVCc0-45" value="" style="edgeStyle=orthogonalEdgeStyle;rounded=0;orthogonalLoop=1;jettySize=auto;html=1;labelBackgroundColor=none;strokeColor=#23445D;fontColor=default;" parent="1" source="xnqerNVusVYPaNGDVCc0-42" target="xnqerNVusVYPaNGDVCc0-44" edge="1">
          <mxGeometry relative="1" as="geometry" />
        </mxCell>
        <mxCell id="xnqerNVusVYPaNGDVCc0-50" value="" style="edgeStyle=orthogonalEdgeStyle;rounded=0;orthogonalLoop=1;jettySize=auto;html=1;labelBackgroundColor=none;strokeColor=#23445D;fontColor=default;" parent="1" source="xnqerNVusVYPaNGDVCc0-42" target="xnqerNVusVYPaNGDVCc0-49" edge="1">
          <mxGeometry relative="1" as="geometry" />
        </mxCell>
        <mxCell id="xnqerNVusVYPaNGDVCc0-42" value="vehicleType = &#39;C&#39;" style="rhombus;whiteSpace=wrap;html=1;strokeWidth=2;labelBackgroundColor=none;fillColor=#182E3E;strokeColor=#FFFFFF;fontColor=#FFFFFF;" parent="1" vertex="1">
          <mxGeometry x="470" y="190" width="125" height="80" as="geometry" />
        </mxCell>
        <mxCell id="xnqerNVusVYPaNGDVCc0-48" value="" style="edgeStyle=orthogonalEdgeStyle;rounded=0;orthogonalLoop=1;jettySize=auto;html=1;labelBackgroundColor=none;strokeColor=#23445D;fontColor=default;" parent="1" source="xnqerNVusVYPaNGDVCc0-44" target="xnqerNVusVYPaNGDVCc0-47" edge="1">
          <mxGeometry relative="1" as="geometry" />
        </mxCell>
        <mxCell id="xnqerNVusVYPaNGDVCc0-52" style="edgeStyle=orthogonalEdgeStyle;rounded=0;orthogonalLoop=1;jettySize=auto;html=1;entryX=0;entryY=0.5;entryDx=0;entryDy=0;labelBackgroundColor=none;strokeColor=#23445D;fontColor=default;" parent="1" source="xnqerNVusVYPaNGDVCc0-44" target="xnqerNVusVYPaNGDVCc0-51" edge="1">
          <mxGeometry relative="1" as="geometry" />
        </mxCell>
        <mxCell id="xnqerNVusVYPaNGDVCc0-44" value="vehicleType = &#39;T&#39;" style="rhombus;whiteSpace=wrap;html=1;strokeWidth=2;labelBackgroundColor=none;fillColor=#182E3E;strokeColor=#FFFFFF;fontColor=#FFFFFF;" parent="1" vertex="1">
          <mxGeometry x="470" y="320" width="125" height="80" as="geometry" />
        </mxCell>
        <mxCell id="xnqerNVusVYPaNGDVCc0-54" style="edgeStyle=orthogonalEdgeStyle;rounded=0;orthogonalLoop=1;jettySize=auto;html=1;labelBackgroundColor=none;strokeColor=#23445D;fontColor=default;" parent="1" source="xnqerNVusVYPaNGDVCc0-47" target="xnqerNVusVYPaNGDVCc0-53" edge="1">
          <mxGeometry relative="1" as="geometry" />
        </mxCell>
        <mxCell id="xnqerNVusVYPaNGDVCc0-47" value="vehicleType = &#39;B&#39;" style="rhombus;whiteSpace=wrap;html=1;strokeWidth=2;labelBackgroundColor=none;fillColor=#182E3E;strokeColor=#FFFFFF;fontColor=#FFFFFF;" parent="1" vertex="1">
          <mxGeometry x="470" y="450" width="125" height="80" as="geometry" />
        </mxCell>
        <mxCell id="xnqerNVusVYPaNGDVCc0-49" value="print &quot;Type of &lt;br&gt;Vehicle: Car&quot;" style="shape=parallelogram;perimeter=parallelogramPerimeter;whiteSpace=wrap;html=1;fixedSize=1;strokeWidth=2;labelBackgroundColor=none;fillColor=#182E3E;strokeColor=#FFFFFF;fontColor=#FFFFFF;" parent="1" vertex="1">
          <mxGeometry x="620" y="200" width="140" height="60" as="geometry" />
        </mxCell>
        <mxCell id="xnqerNVusVYPaNGDVCc0-51" value="print &quot;Type of &lt;br&gt;Vehicle: Truck&quot;" style="shape=parallelogram;perimeter=parallelogramPerimeter;whiteSpace=wrap;html=1;fixedSize=1;strokeWidth=2;labelBackgroundColor=none;fillColor=#182E3E;strokeColor=#FFFFFF;fontColor=#FFFFFF;" parent="1" vertex="1">
          <mxGeometry x="620" y="330" width="140" height="60" as="geometry" />
        </mxCell>
        <mxCell id="xnqerNVusVYPaNGDVCc0-61" value="" style="edgeStyle=orthogonalEdgeStyle;rounded=0;orthogonalLoop=1;jettySize=auto;html=1;labelBackgroundColor=none;strokeColor=#23445D;fontColor=default;" parent="1" source="xnqerNVusVYPaNGDVCc0-53" target="xnqerNVusVYPaNGDVCc0-60" edge="1">
          <mxGeometry relative="1" as="geometry" />
        </mxCell>
        <mxCell id="xnqerNVusVYPaNGDVCc0-53" value="print &quot;Type of &lt;br&gt;Vehicle: Bus&quot;" style="shape=parallelogram;perimeter=parallelogramPerimeter;whiteSpace=wrap;html=1;fixedSize=1;strokeWidth=2;labelBackgroundColor=none;fillColor=#182E3E;strokeColor=#FFFFFF;fontColor=#FFFFFF;" parent="1" vertex="1">
          <mxGeometry x="620" y="460" width="140" height="60" as="geometry" />
        </mxCell>
        <mxCell id="xnqerNVusVYPaNGDVCc0-62" value="" style="edgeStyle=orthogonalEdgeStyle;rounded=0;orthogonalLoop=1;jettySize=auto;html=1;labelBackgroundColor=none;strokeColor=#23445D;fontColor=default;" parent="1" source="xnqerNVusVYPaNGDVCc0-56" target="xnqerNVusVYPaNGDVCc0-60" edge="1">
          <mxGeometry relative="1" as="geometry" />
        </mxCell>
        <mxCell id="xnqerNVusVYPaNGDVCc0-56" value="" style="verticalLabelPosition=bottom;verticalAlign=top;html=1;shape=mxgraph.flowchart.or;labelBackgroundColor=none;fillColor=#182E3E;strokeColor=#FFFFFF;fontColor=#FFFFFF;" parent="1" vertex="1">
          <mxGeometry x="790" y="350" width="20" height="20" as="geometry" />
        </mxCell>
        <mxCell id="xnqerNVusVYPaNGDVCc0-57" style="edgeStyle=orthogonalEdgeStyle;rounded=0;orthogonalLoop=1;jettySize=auto;html=1;entryX=0.5;entryY=0;entryDx=0;entryDy=0;entryPerimeter=0;labelBackgroundColor=none;strokeColor=#23445D;fontColor=default;" parent="1" source="xnqerNVusVYPaNGDVCc0-49" target="xnqerNVusVYPaNGDVCc0-56" edge="1">
          <mxGeometry relative="1" as="geometry" />
        </mxCell>
        <mxCell id="xnqerNVusVYPaNGDVCc0-59" style="edgeStyle=orthogonalEdgeStyle;rounded=0;orthogonalLoop=1;jettySize=auto;html=1;entryX=0;entryY=0.5;entryDx=0;entryDy=0;entryPerimeter=0;labelBackgroundColor=none;strokeColor=#23445D;fontColor=default;" parent="1" source="xnqerNVusVYPaNGDVCc0-51" target="xnqerNVusVYPaNGDVCc0-56" edge="1">
          <mxGeometry relative="1" as="geometry" />
        </mxCell>
        <mxCell id="xnqerNVusVYPaNGDVCc0-60" value="" style="verticalLabelPosition=bottom;verticalAlign=top;html=1;shape=mxgraph.flowchart.or;labelBackgroundColor=none;fillColor=#182E3E;strokeColor=#FFFFFF;fontColor=#FFFFFF;" parent="1" vertex="1">
          <mxGeometry x="790" y="480" width="20" height="20" as="geometry" />
        </mxCell>
        <mxCell id="xnqerNVusVYPaNGDVCc0-63" value="return" style="strokeWidth=2;html=1;shape=mxgraph.flowchart.terminator;whiteSpace=wrap;labelBackgroundColor=none;fillColor=#182E3E;strokeColor=#FFFFFF;fontColor=#FFFFFF;" parent="1" vertex="1">
          <mxGeometry x="487.5" y="590" width="90" height="40" as="geometry" />
        </mxCell>
        <mxCell id="xnqerNVusVYPaNGDVCc0-64" style="edgeStyle=orthogonalEdgeStyle;rounded=0;orthogonalLoop=1;jettySize=auto;html=1;entryX=1;entryY=0.5;entryDx=0;entryDy=0;entryPerimeter=0;labelBackgroundColor=none;strokeColor=#23445D;fontColor=default;" parent="1" source="xnqerNVusVYPaNGDVCc0-60" target="xnqerNVusVYPaNGDVCc0-63" edge="1">
          <mxGeometry relative="1" as="geometry">
            <Array as="points">
              <mxPoint x="800" y="610" />
            </Array>
          </mxGeometry>
        </mxCell>
      </root>
    </mxGraphModel>
  </diagram>
</mxfile>
